<?xml version="1.0" encoding="UTF-8" standalone="no"?>
<!-- Generator: Adobe Illustrator 24.0.2, SVG Export Plug-In . SVG Version: 6.00 Build 0) -->
<svg xmlns:dc="http://purl.org/dc/elements/1.1/" xmlns:cc="http://creativecommons.org/ns#" xmlns:rdf="http://www.w3.org/1999/02/22-rdf-syntax-ns#" xmlns:svg="http://www.w3.org/2000/svg" xmlns="http://www.w3.org/2000/svg" xmlns:sodipodi="http://sodipodi.sourceforge.net/DTD/sodipodi-0.dtd" xmlns:inkscape="http://www.inkscape.org/namespaces/inkscape" version="1.1" id="Layer_1" x="0px" y="0px" viewBox="0 0 341.99 127.87" style="enable-background:new 0 0 341.99 127.87;" xml:space="preserve" sodipodi:docname="Logo_GCP_RGB-branco-sombral.svg" inkscape:version="0.92.5 (2060ec1f9f, 2020-04-08)"><metadata id="metadata1053"/><defs id="defs1051"><filter style="color-interpolation-filters:sRGB;" inkscape:label="Drop Shadow" id="filter1968"><feFlood flood-opacity="0.498039" flood-color="rgb(0,0,0)" result="flood" id="feFlood1958"/><feComposite in="flood" in2="SourceGraphic" operator="in" result="composite1" id="feComposite1960"/><feGaussianBlur in="composite1" stdDeviation="4" result="blur" id="feGaussianBlur1962"/><feOffset dx="-1" dy="0" result="offset" id="feOffset1964"/><feComposite in="SourceGraphic" in2="offset" operator="over" result="composite2" id="feComposite1966"/></filter><filter style="color-interpolation-filters:sRGB;" inkscape:label="Drop Shadow" id="filter1980"><feFlood flood-opacity="0.498039" flood-color="rgb(0,0,0)" result="flood" id="feFlood1970"/><feComposite in="flood" in2="SourceGraphic" operator="in" result="composite1" id="feComposite1972"/><feGaussianBlur in="composite1" stdDeviation="4" result="blur" id="feGaussianBlur1974"/><feOffset dx="-1" dy="0" result="offset" id="feOffset1976"/><feComposite in="SourceGraphic" in2="offset" operator="over" result="composite2" id="feComposite1978"/></filter></defs> <style type="text/css" id="style986"> .st0{fill:#002D56;} .st1{fill:#FFFFFF;} </style> <g id="g1036" style="filter:url(#filter1980)"> <g id="g1006"> <path class="st1" d="m 149.5,100.43 h -4.94 v 9.37 h -5.01 V 84.9 h 9.94 c 5.3,0 8.47,3.53 8.47,7.77 0,4.22 -3.17,7.76 -8.46,7.76 z m -0.25,-11.2 h -4.68 v 6.82 h 4.68 c 2.27,0 3.71,-1.36 3.71,-3.39 0,-2.03 -1.44,-3.43 -3.71,-3.43 z" id="path988" inkscape:connector-curvature="0" style="fill:#ffffff"/> <path class="st1" d="m 177.71,107.28 c -1.8,1.75 -4,2.73 -6.92,2.73 -2.92,0 -5.15,-0.98 -6.95,-2.73 -2.59,-2.52 -2.52,-5.63 -2.52,-9.93 0,-4.3 -0.07,-7.42 2.52,-9.93 1.8,-1.75 4.04,-2.73 6.95,-2.73 2.92,0 5.12,0.98 6.92,2.73 2.59,2.52 2.56,5.63 2.56,9.93 0,4.3 0.03,7.41 -2.56,9.93 z M 174,90.35 c -0.72,-0.8 -1.84,-1.33 -3.21,-1.33 -1.37,0 -2.52,0.52 -3.24,1.33 -0.97,1.05 -1.23,2.2 -1.23,7 0,4.79 0.25,5.95 1.23,7 0.72,0.8 1.87,1.33 3.24,1.33 1.37,0 2.49,-0.52 3.21,-1.33 0.97,-1.05 1.26,-2.2 1.26,-7 0,-4.79 -0.29,-5.95 -1.26,-7 z" id="path990" inkscape:connector-curvature="0" style="fill:#ffffff"/> <path class="st1" d="m 199,109.8 -5,-9.93 h -3.6 v 9.93 h -5.01 V 84.9 h 10.05 c 5.22,0 8.32,3.46 8.32,7.63 0,3.5 -2.2,5.67 -4.68,6.54 l 5.73,10.74 H 199 Z m -3.89,-20.57 h -4.72 v 6.58 h 4.72 c 2.2,0 3.64,-1.36 3.64,-3.29 0,-1.92 -1.44,-3.29 -3.64,-3.29 z" id="path992" inkscape:connector-curvature="0" style="fill:#ffffff"/> <path class="st1" d="m 218.75,89.23 v 20.57 h -5.01 V 89.23 h -6.7 V 84.9 h 18.41 v 4.34 h -6.7 z" id="path994" inkscape:connector-curvature="0" style="fill:#ffffff"/> <path class="st1" d="m 238.57,110.01 c -5.26,0 -9.44,-3.46 -9.44,-8.74 V 84.9 h 5.01 v 16.2 c 0,2.87 1.73,4.58 4.43,4.58 2.7,0 4.47,-1.71 4.47,-4.58 V 84.9 h 4.97 v 16.37 c 0,5.28 -4.18,8.74 -9.44,8.74 z" id="path996" inkscape:connector-curvature="0" style="fill:#ffffff"/> <path class="st1" d="m 269.41,107.18 c -1.98,1.96 -4.36,2.83 -7.24,2.83 -2.74,0 -5.04,-0.91 -6.92,-2.73 -1.12,-1.08 -1.8,-2.34 -2.09,-3.74 -0.29,-1.4 -0.43,-3.46 -0.43,-6.19 0,-2.73 0.14,-4.79 0.43,-6.19 0.29,-1.43 0.97,-2.66 2.09,-3.74 1.87,-1.82 4.18,-2.73 6.92,-2.73 5.84,0 8.97,3.64 9.66,7.98 h -5.04 c -0.61,-2.41 -2.13,-3.64 -4.61,-3.64 -1.33,0 -2.41,0.45 -3.21,1.33 -0.94,1.15 -1.22,2.06 -1.22,7 0,4.9 0.22,5.88 1.22,7.03 0.76,0.87 1.84,1.29 3.21,1.29 1.48,0 2.67,-0.45 3.57,-1.4 0.76,-0.84 1.15,-1.96 1.15,-3.32 v -0.94 h -4.72 v -4.06 h 9.69 v 3.64 c -0.01,3.63 -0.7,5.76 -2.46,7.58 z" id="path998" inkscape:connector-curvature="0" style="fill:#ffffff"/> <path class="st1" d="m 285.59,110.01 c -5.26,0 -9.44,-3.46 -9.44,-8.74 V 84.9 h 5.01 v 16.2 c 0,2.87 1.73,4.58 4.43,4.58 2.7,0 4.47,-1.71 4.47,-4.58 V 84.9 h 4.97 v 16.37 c 0,5.28 -4.18,8.74 -9.44,8.74 z" id="path1000" inkscape:connector-curvature="0" style="fill:#ffffff"/> <path class="st1" d="M 300.61,109.8 V 84.9 h 16.9 v 4.34 h -11.89 v 5.84 h 10.12 v 4.34 h -10.12 v 6.05 h 11.89 v 4.34 h -16.9 z m 11.17,-27.32 -2.99,-3.18 -2.99,3.18 h -3.64 l 4.76,-5.91 h 3.75 l 4.76,5.91 z" id="path1002" inkscape:connector-curvature="0" style="fill:#ffffff"/> <path class="st1" d="m 329.47,110.01 c -3.89,0 -6.85,-0.8 -9.37,-3.29 l 3.24,-3.15 c 1.62,1.57 3.82,2.1 6.2,2.1 2.95,0 4.54,-1.08 4.54,-3.08 0,-0.87 -0.25,-1.61 -0.79,-2.1 -0.5,-0.45 -1.08,-0.7 -2.27,-0.87 l -3.1,-0.42 c -2.2,-0.32 -3.82,-0.98 -4.97,-2.06 -1.22,-1.19 -1.84,-2.8 -1.84,-4.9 0,-4.44 3.39,-7.56 8.93,-7.56 3.53,0 6.09,0.84 8.29,2.9 l -3.17,3.04 c -1.62,-1.5 -3.57,-1.71 -5.26,-1.71 -2.67,0 -3.96,1.43 -3.96,3.15 0,0.63 0.22,1.29 0.76,1.78 0.5,0.45 1.33,0.84 2.38,0.98 l 3.03,0.42 c 2.34,0.31 3.82,0.94 4.9,1.92 1.37,1.26 1.98,3.08 1.98,5.28 -0.01,4.84 -4.15,7.57 -9.52,7.57 z" id="path1004" inkscape:connector-curvature="0" style="fill:#ffffff"/> </g> <g id="g1018"> <path class="st1" d="m 149.22,76.85 c -2.74,0 -5.04,-0.91 -6.92,-2.73 -1.12,-1.08 -1.8,-2.34 -2.09,-3.74 -0.29,-1.4 -0.43,-3.46 -0.43,-6.19 0,-2.73 0.14,-4.79 0.43,-6.19 0.29,-1.43 0.97,-2.66 2.09,-3.74 1.87,-1.82 4.18,-2.73 6.92,-2.73 4.94,0 8.57,2.8 9.44,7.87 h -5.08 c -0.54,-2.13 -1.91,-3.53 -4.32,-3.53 -1.37,0 -2.45,0.42 -3.21,1.29 -1.04,1.08 -1.26,2.2 -1.26,7.03 0,4.83 0.22,5.95 1.26,7.03 0.76,0.87 1.84,1.29 3.21,1.29 2.41,0 3.78,-1.4 4.32,-3.53 h 5.08 c -0.87,5.07 -4.54,7.87 -9.44,7.87 z" id="path1008" inkscape:connector-curvature="0" style="fill:#ffffff"/> <path class="st1" d="m 162.98,76.64 v -24.9 h 5.01 V 72.3 h 11.64 v 4.34 z" id="path1010" inkscape:connector-curvature="0" style="fill:#ffffff"/> <path class="st1" d="m 192.31,76.85 c -5.26,0 -9.44,-3.46 -9.44,-8.74 V 51.73 h 5.01 v 16.2 c 0,2.87 1.73,4.58 4.43,4.58 2.7,0 4.47,-1.71 4.47,-4.58 v -16.2 h 4.97 V 68.1 c 0,5.29 -4.18,8.75 -9.44,8.75 z" id="path1012" inkscape:connector-curvature="0" style="fill:#ffffff"/> <path class="st1" d="m 218.08,76.64 h -10.74 v -24.9 h 10.3 c 5.01,0 7.93,2.73 7.93,7 0,2.76 -1.87,4.55 -3.17,5.14 1.55,0.7 3.53,2.27 3.53,5.6 0,4.64 -3.28,7.16 -7.85,7.16 z m -0.83,-20.57 h -4.9 v 5.74 h 4.9 c 2.13,0 3.32,-1.15 3.32,-2.87 -0.01,-1.71 -1.2,-2.87 -3.32,-2.87 z m 0.32,10.11 h -5.22 v 6.12 h 5.22 c 2.27,0 3.35,-1.4 3.35,-3.08 0,-1.68 -1.08,-3.04 -3.35,-3.04 z" id="path1014" inkscape:connector-curvature="0" style="fill:#ffffff"/> <path class="st1" d="m 231.05,76.64 v -24.9 h 16.9 v 4.34 h -11.89 v 5.84 h 10.12 v 4.34 h -10.12 v 6.05 h 11.89 v 4.34 h -16.9 z" id="path1016" inkscape:connector-curvature="0" style="fill:#ffffff"/> </g> <g id="g1034"> <path class="st1" d="m 156.35,40.81 c -1.98,1.96 -4.36,2.83 -7.24,2.83 -2.74,0 -5.04,-0.91 -6.92,-2.73 -1.12,-1.08 -1.8,-2.34 -2.09,-3.74 -0.29,-1.4 -0.43,-3.46 -0.43,-6.19 0,-2.73 0.14,-4.79 0.43,-6.19 0.29,-1.43 0.97,-2.66 2.09,-3.74 1.87,-1.82 4.18,-2.73 6.92,-2.73 5.84,0 8.97,3.64 9.66,7.98 h -5.04 c -0.61,-2.41 -2.13,-3.64 -4.61,-3.64 -1.33,0 -2.41,0.45 -3.21,1.33 -0.94,1.15 -1.23,2.06 -1.23,7 0,4.9 0.22,5.88 1.23,7.03 0.76,0.87 1.84,1.29 3.21,1.29 1.48,0 2.67,-0.45 3.57,-1.4 0.76,-0.84 1.15,-1.96 1.15,-3.32 v -0.94 h -4.72 v -4.06 h 9.69 v 3.64 c -0.01,3.63 -0.69,5.77 -2.46,7.58 z" id="path1020" inkscape:connector-curvature="0" style="fill:#ffffff"/> <path class="st1" d="M 163.49,43.44 V 18.53 h 5.01 v 24.91 z" id="path1022" inkscape:connector-curvature="0" style="fill:#ffffff"/> <path class="st1" d="M 189.64,43.44 179.48,28.15 v 15.29 h -5.01 V 18.53 h 4.47 L 189.1,33.78 V 18.53 h 5.01 v 24.91 z" id="path1024" inkscape:connector-curvature="0" style="fill:#ffffff"/> <path class="st1" d="m 214.69,43.44 -1.51,-4.41 h -9.12 l -1.55,4.41 h -5.22 l 9.33,-24.91 h 3.93 l 9.37,24.91 z m -5.99,-17.56 -3.24,9.06 h 6.38 z m 0.98,-9.76 h -3.13 l 2.31,-5.95 h 4.94 z" id="path1026" inkscape:connector-curvature="0" style="fill:#ffffff"/> <path class="st1" d="m 230.14,43.65 c -3.89,0 -6.85,-0.8 -9.37,-3.29 l 3.24,-3.15 c 1.62,1.57 3.82,2.1 6.2,2.1 2.95,0 4.54,-1.08 4.54,-3.08 0,-0.87 -0.25,-1.61 -0.79,-2.1 -0.5,-0.45 -1.08,-0.7 -2.27,-0.87 l -3.1,-0.42 c -2.2,-0.32 -3.82,-0.98 -4.97,-2.06 -1.22,-1.19 -1.84,-2.8 -1.84,-4.9 0,-4.44 3.39,-7.56 8.93,-7.56 3.53,0 6.09,0.84 8.29,2.9 l -3.17,3.04 c -1.62,-1.5 -3.57,-1.71 -5.26,-1.71 -2.67,0 -3.96,1.43 -3.96,3.15 0,0.63 0.22,1.29 0.76,1.78 0.5,0.45 1.33,0.84 2.38,0.98 l 3.03,0.42 c 2.34,0.31 3.82,0.94 4.9,1.92 1.37,1.26 1.98,3.08 1.98,5.28 -0.01,4.84 -4.15,7.57 -9.52,7.57 z" id="path1028" inkscape:connector-curvature="0" style="fill:#ffffff"/> <path class="st1" d="M 244.38,43.44 V 18.53 h 5.01 v 24.91 z" id="path1030" inkscape:connector-curvature="0" style="fill:#ffffff"/> <path class="st1" d="m 270.89,40.92 c -1.8,1.75 -4,2.73 -6.92,2.73 -2.92,0 -5.15,-0.98 -6.95,-2.73 -2.59,-2.52 -2.52,-5.63 -2.52,-9.93 0,-4.3 -0.07,-7.42 2.52,-9.93 1.8,-1.75 4.04,-2.73 6.95,-2.73 2.92,0 5.12,0.98 6.92,2.73 2.59,2.52 2.56,5.63 2.56,9.93 0,4.3 0.04,7.41 -2.56,9.93 z m -3.71,-16.93 c -0.72,-0.8 -1.84,-1.33 -3.21,-1.33 -1.37,0 -2.52,0.52 -3.24,1.33 -0.97,1.05 -1.22,2.2 -1.22,7 0,4.79 0.25,5.95 1.22,7 0.72,0.8 1.87,1.33 3.24,1.33 1.37,0 2.49,-0.52 3.21,-1.33 0.97,-1.05 1.26,-2.2 1.26,-7 0,-4.8 -0.29,-5.95 -1.26,-7 z" id="path1032" inkscape:connector-curvature="0" style="fill:#ffffff"/> </g> </g> <g id="g1046" style="filter:url(#filter1968)"> <path class="st1" d="m 63.74,8.36 c -30.81,0 -55.91,25.03 -55.91,55.79 0,30.76 25.1,55.79 55.91,55.79 30.84,0 55.93,-25.03 55.93,-55.79 C 119.66,33.39 94.58,8.36 63.74,8.36 Z m 19.03,13.94 5.42,2.75 5.33,-2.88 -0.95,5.97 4.39,4.17 -5.99,0.95 -2.62,5.46 -2.74,-5.39 -6.02,-0.81 4.28,-4.27 z m -48.54,-0.13 5.39,2.8 5.36,-2.82 -1,5.95 4.35,4.22 -6,0.89 -2.67,5.43 -2.7,-5.42 -6,-0.86 4.34,-4.24 z m -9.52,65.1 -2.68,-5.42 -6.01,-0.87 4.34,-4.23 -1.03,-5.97 5.37,2.81 5.37,-2.81 -1.02,5.96 4.33,4.23 -5.99,0.87 z m 41.75,22.91 -2.66,5.43 -2.7,-5.42 -6.01,-0.84 4.33,-4.24 -1.06,-5.97 5.37,2.79 5.38,-2.82 -1.01,5.97 4.35,4.2 z M 63.8,90.75 32.32,107.2 38.38,72.26 12.98,47.47 48.15,42.43 63.92,10.65 79.6,42.47 l 35.17,5.16 -25.5,24.71 5.95,34.96 z m 42.26,-8.83 -2.65,5.44 -2.71,-5.41 -6.01,-0.87 4.33,-4.24 -1.05,-5.96 5.37,2.8 5.36,-2.84 -1,5.97 4.36,4.21 z M 63.74,3.04 C 30,3.04 2.63,30.4 2.63,64.15 c 0,33.76 27.37,61.12 61.1,61.12 33.76,0 61.13,-27.36 61.13,-61.12 C 124.86,30.4 97.49,3.04 63.74,3.04 Z m 0,118.76 C 31.9,121.8 5.98,95.94 5.98,64.15 5.97,32.36 31.9,6.5 63.74,6.5 c 31.87,0 57.79,25.85 57.79,57.65 0,31.79 -25.92,57.65 -57.79,57.65 z" id="path1038" inkscape:connector-curvature="0" style="fill:#ffffff"/> <path class="st1" d="m 59.26,50.38 c -1.93,-4.12 -7.65,-6.49 -12.45,-5.16 -5.3,1.34 -7.73,6.09 -8.14,9.6 -0.2,4.75 1.43,7.43 3.46,9.38 3.28,3.72 9.79,3.72 13.06,1.76 4.99,-2.78 5.53,-7.54 5.43,-10.22 l -11.54,0.01 -0.02,4.22 4.38,-0.07 c 0,0 -1.42,2.55 -5.48,1.42 -2.35,-0.73 -3.68,-2.89 -3.38,-6.3 0.32,-2.37 2.35,-4.33 5.2,-4.33 3.18,0 5.1,2.89 5.1,2.89 l 4.38,-3.2" id="path1040" inkscape:connector-curvature="0" style="fill:#ffffff"/> <path class="st1" d="m 88.86,49.18 c -2.04,-3.48 -7.05,-5.41 -11.85,-4.09 -5.31,1.33 -7.78,6.01 -8.18,9.48 -0.2,4.68 1.44,7.34 3.48,9.29 3.27,3.66 9.81,3.66 13.08,1.73 2.86,-1.62 3.06,-3.27 3.06,-3.27 l -3.79,-3.16 c 0,0 -2.44,2.96 -6.54,1.83 -2.35,-0.7 -3.68,-2.85 -3.37,-6.21 0.31,-2.35 2.35,-4.27 5.21,-4.27 3.18,0 4.3,1.41 4.8,1.82 l 4.1,-3.15" id="path1042" inkscape:connector-curvature="0" style="fill:#ffffff"/> <path class="st1" d="M 72.1,68.2 C 67.94,67.45 56.78,67.88 56.78,67.88 l 0.06,21.51 6.38,0.06 -0.04,-6.29 c 0,0 9.23,0.21 9.55,-0.21 7.03,-1.88 7.86,-13.24 -0.63,-14.75 m -1.78,9.83 -7.18,-0.02 0.06,-4.79 c 0,0 6.19,-0.09 7.33,0 1.99,0.84 1.78,4.62 -0.21,4.81 z" id="path1044" inkscape:connector-curvature="0" style="fill:#ffffff"/> </g> </svg>